<svg width="28" height="35" viewBox="0 0 28 35" fill="none" xmlns="http://www.w3.org/2000/svg">
<g clip-path="url(#clip0_122_1091)">
<path d="M23.9026 5.43969C25.2609 7.29535 26.0631 9.49923 26.2153 11.7939C26.2292 12.0032 26.1747 12.2115 26.0601 12.3872C25.9455 12.563 25.777 12.6967 25.5798 12.7685L23.0634 13.6846C22.7539 13.7973 22.4168 13.8098 22.0998 13.7204C21.7827 13.631 21.5018 13.4443 21.2967 13.1865C21.0916 12.9288 20.9727 12.6131 20.9569 12.2841C20.941 11.9551 21.0289 11.6293 21.2082 11.353C20.9757 11.2818 20.7629 11.1576 20.5865 10.9902C20.4101 10.8228 20.275 10.6167 20.1919 10.3882C20.1087 10.1597 20.0797 9.91498 20.1072 9.67336C20.1346 9.43173 20.2178 9.19976 20.3502 8.99575C20.0353 8.89931 19.7587 8.70642 19.5594 8.4442C19.3601 8.18198 19.2483 7.8637 19.2398 7.53447C19.2312 7.20524 19.3263 6.88162 19.5117 6.6094C19.6971 6.33717 19.9633 6.13016 20.2728 6.01748L22.7892 5.10139C22.9864 5.02962 23.2015 5.02383 23.4023 5.08484C23.6031 5.14584 23.7786 5.27034 23.9026 5.43969Z" fill="white"/>
<path d="M15.3484 11.5342C14.3393 11.4971 13.3484 11.8102 12.5438 12.4204C11.7392 13.0306 11.1705 13.9004 10.9341 14.8821C10.7542 15.6299 10.3325 16.2973 9.73438 16.7808C9.65763 16.8428 9.57096 16.8913 9.47803 16.9243C9.59251 17.2272 9.64574 17.5497 9.63464 17.8732C9.62354 18.1967 9.54833 18.5149 9.41336 18.8091C9.2784 19.1034 9.08637 19.3679 8.84841 19.5874C8.61044 19.8068 8.33128 19.9769 8.0271 20.0877L7.27173 20.3628C8.55119 21.8157 10.239 22.8489 12.1148 23.3276C13.9906 23.8064 15.9672 23.7083 17.7864 23.0463C19.6056 22.3843 21.1829 21.1891 22.3123 19.6167C23.4417 18.0444 24.0707 16.1681 24.1172 14.2327L23.3635 14.5061C23.0591 14.617 22.7358 14.6663 22.4122 14.6511C22.0886 14.636 21.7712 14.5567 21.4785 14.4179C21.1858 14.2791 20.9236 14.0835 20.7071 13.8426C20.4906 13.6016 20.3241 13.32 20.2173 13.0142C20.1243 13.0493 20.0261 13.0684 19.9268 13.0706C19.1585 13.0848 18.407 12.8451 17.7888 12.3887C17.08 11.8645 16.2294 11.5667 15.3484 11.5342ZM17.0078 14.8411C18.079 14.8215 19.1379 15.0712 20.0874 15.5674C20.3035 15.6804 20.4936 15.8372 20.6456 16.028C20.7975 16.2187 20.9079 16.439 20.9697 16.6749C21.0315 16.9108 21.0433 17.157 21.0044 17.3977C20.9654 17.6385 20.8766 17.8684 20.7437 18.0728C19.8617 19.4265 18.5641 20.4574 17.0459 21.0103C15.5278 21.5632 13.8712 21.6082 12.3252 21.1387C12.0916 21.0678 11.8754 20.9488 11.6905 20.7894C11.5056 20.6299 11.3561 20.4335 11.2516 20.2129C11.1472 19.9922 11.0901 19.7521 11.0839 19.508C11.0778 19.264 11.1228 19.0213 11.2161 18.7957C11.6914 17.6441 12.4927 16.6563 13.5216 15.9538C14.5505 15.2513 15.7622 14.8645 17.0078 14.8411Z" fill="white"/>
<path d="M7.64979 16.288C7.78216 16.084 7.86535 15.852 7.89283 15.6104C7.92031 15.3688 7.89132 15.1241 7.80814 14.8955C7.72497 14.667 7.58988 14.461 7.41351 14.2935C7.23714 14.1261 7.02431 14.0019 6.79178 13.9307C6.9711 13.6544 7.05903 13.3287 7.04315 12.9997C7.02727 12.6707 6.90838 12.355 6.70328 12.0972C6.49819 11.8395 6.21727 11.6527 5.90024 11.5633C5.58321 11.474 5.24611 11.4865 4.93659 11.5992L2.42018 12.5153C2.22303 12.587 2.05449 12.7208 1.93989 12.8965C1.82529 13.0723 1.77082 13.2805 1.78467 13.4899C1.93693 15.7845 2.73909 17.9884 4.09742 19.8441C4.22135 20.0134 4.39691 20.138 4.5977 20.199C4.79849 20.26 5.01365 20.2541 5.21085 20.1824L7.72725 19.2667C8.03684 19.1541 8.3032 18.947 8.48866 18.6748C8.67412 18.4025 8.7693 18.0788 8.76073 17.7495C8.75217 17.4202 8.6403 17.1018 8.44094 16.8396C8.24158 16.5773 7.96482 16.3844 7.64979 16.288Z" fill="white"/>
<path d="M18.3676 7.62469C17.4126 7.04456 16.3395 6.68629 15.2275 6.57649C14.1155 6.46669 12.9931 6.60812 11.943 6.99028C10.893 7.37244 9.94228 7.98555 9.16101 8.78441C8.37974 9.58327 7.7879 10.5475 7.42921 11.6058C7.20182 11.3033 6.90736 11.0577 6.56897 10.8883C6.23058 10.7189 5.8575 10.6303 5.47908 10.6295C5.96635 9.32636 6.73035 8.14434 7.71842 7.16488C8.7065 6.18542 9.89517 5.43179 11.2025 4.95595C12.5099 4.48011 13.9049 4.29334 15.2914 4.40854C16.6779 4.52373 18.0229 4.93819 19.2339 5.62326C18.9445 5.86712 18.7156 6.1748 18.5653 6.52209C18.415 6.86939 18.3473 7.24681 18.3676 7.62469Z" fill="white"/>
</g>
<defs>
<clipPath id="clip0_122_1091">
<rect width="28" height="35" fill="white"/>
</clipPath>
</defs>
</svg>
